#!OML:ASF X:\für Bonn\!DataBase\2005_08_10_Bjorn_Final\c3d\bjorn.ASF
:FULLY-SPECIFIED
:DEGREES
214
root -1.1004 16.2626 12.5018 -537.303 26.3389 -526.152
lowerback 2.18422 0.392846 13.8068
upperback 7.62993 0.97566 4.74497
thorax 7.04248 1.5557 -2.53687
lowerneck -9.35152 6.23738 11.856
upperneck -1.39254 7.69073 -14.0842
head 2.15576 3.65049 -5.81483
rclavicle -9.93923e-016 6.36111e-015
rhumerus 54.8654 27.3392 -72.1256
rradius 94.912
rwrist 27.6894
rhand -48.5995 35.7351
rfingers 7.12502
rthumb -21.2443 6.87937
lclavicle -9.93923e-016 6.36111e-015
lhumerus 36.1056 -33.6524 88.1601
lradius 101.656
lwrist 32.9264
lhand -45.0065 -13.7524
lfingers 7.12502
lthumb -17.7899 15.4538
rfemur 353.588 2.50508 -335.052
rtibia 60.9422
rfoot -41.7083 13.014
rtoes -32.8109
lfemur -44.3507 -1.77639 6.64624
ltibia 71.137
lfoot -15.0039 10.8031
ltoes -39.5195
215
root -1.1111 16.2668 12.3579 -536.996 26.5569 -526.29
lowerback 1.75103 0.529872 13.6827
upperback 7.4312 1.06026 4.72472
thorax 7.08453 1.56655 -2.48587
lowerneck -9.73007 6.33332 12.0204
upperneck -0.758741 7.80926 -14.2086
head 2.43163 3.67834 -5.85458
rclavicle -6.26172e-015 -1.59028e-015
rhumerus 55.2978 27.347 -72.0185
rradius 95.0394
rwrist 27.5121
rhand -48.2178 35.4666
rfingers 7.12502
rthumb -20.8776 6.57001
lclavicle -6.26172e-015 -1.59028e-015
lhumerus 37.056 -33.4558 87.4856
lradius 101.957
lwrist 32.867
lhand -45.061 -13.3252
lfingers 7.12502
lthumb -17.8424 15.8763
rfemur 353.809 2.51822 -335.676
rtibia 60.476
rfoot -41.2436 14.164
rtoes -32.22
lfemur -44.4307 -1.29414 6.19974
ltibia 71.5846
lfoot -15.3389 10.867
ltoes -39.4911
216
root -1.12139 16.2842 12.2086 -536.756 26.809 -526.357
lowerback 1.42118 0.642327 13.6164
upperback 7.20228 1.13757 4.73026
thorax 7.03379 1.57266 -2.44273
lowerneck -9.76353 6.39808 12.1107
upperneck -0.413194 7.90529 -14.2811
head 2.55894 3.71351 -5.87976
rclavicle -7.11649e-014 -7.95139e-016
rhumerus 55.6538 27.4837 -71.8004
rradius 95.0108
rwrist 27.1991
rhand -47.8693 35.5116
rfingers 7.12502
rthumb -20.5428 6.57845
lclavicle -7.11649e-014 -7.95139e-016
lhumerus 37.8012 -33.2336 86.8872
lradius 102.272
lwrist 32.6863
lhand -45.2126 -12.8646
lfingers 7.12502
lthumb -17.9882 16.3236
rfemur 354.274 2.57872 -336.197
rtibia 59.7222
rfoot -40.6089 15.2955
rtoes -31.2592
lfemur -44.2339 -0.85888 5.80898
ltibia 71.8173
lfoot -15.7278 10.918
ltoes -39.3849
217
root -1.13122 16.3189 12.0542 -536.589 27.0814 -526.517
lowerback 1.11359 0.774744 13.5027
upperback 6.94805 1.24532 4.68957
thorax 6.94614 1.58703 -2.42339
lowerneck -9.88084 6.46299 12.2729
upperneck 0.209551 8.00098 -14.3507
head 2.78457 3.73822 -5.91118
rclavicle 7.55382e-015 1.11319e-014
rhumerus 55.7812 27.6489 -71.7045
rradius 94.9745
rwrist 27.0483
rhand -47.5012 35.5986
rfingers 7.12502
rthumb -20.189 6.62771
lclavicle 7.55382e-015 1.11319e-014
lhumerus 38.4311 -33.0472 86.2522
lradius 102.618
lwrist 32.6751
lhand -45.3556 -12.6844
lfingers 7.12502
lthumb -18.1258 16.491
rfemur 354.923 2.69633 -336.776
rtibia 58.6647
rfoot -39.9311 16.3115
rtoes -30.3404
lfemur -43.8357 -0.405099 5.31002
ltibia 71.8206
lfoot -16.1715 10.8735
ltoes -39.0839
218
root -1.13795 16.377 11.8954 -536.492 27.4037 -526.822
lowerback 0.773604 0.940464 13.2528
upperback 6.69043 1.39082 4.60118
thorax 6.87448 1.61141 -2.37773
lowerneck -9.93728 6.51545 12.495
upperneck 0.811023 8.08093 -14.4552
head 2.99673 3.75764 -5.96719
rclavicle 9.54166e-015 1.51076e-014
rhumerus 55.632 27.8279 -71.7722
rradius 95.0579
rwrist 27.1224
rhand -47.2071 35.7342
rfingers 7.12502
rthumb -19.9064 6.73375
lclavicle 9.54166e-015 1.51076e-014
lhumerus 38.8369 -32.8666 85.7738
lradius 102.936
lwrist 32.8154
lhand -45.3892 -12.8144
lfingers 7.12502
lthumb -18.1581 16.358
rfemur 355.727 2.86633 -337.462
rtibia 57.3082
rfoot -39.1173 17.0597
rtoes -29.7375
lfemur -43.2259 0.30832 4.6229
ltibia 71.5407
lfoot -16.5988 10.5625
ltoes -38.5108
